<?xml version="1.0" encoding="UTF-8" standalone="no"?>
<!DOCTYPE svg PUBLIC "-//W3C//DTD SVG 1.1//EN"
 "http://www.w3.org/Graphics/SVG/1.1/DTD/svg11.dtd">
<!-- Generated by graphviz version 6.0.1 (20220911.1526)
 -->
<!-- Title: G Pages: 1 -->
<svg width="242pt" height="44pt"
 viewBox="0.00 0.00 242.00 44.00" xmlns="http://www.w3.org/2000/svg" xmlns:xlink="http://www.w3.org/1999/xlink">
<g id="graph0" class="graph" transform="scale(1 1) rotate(0) translate(4 40)">
<title>G</title>
<polygon fill="white" stroke="none" points="-4,4 -4,-40 238,-40 238,4 -4,4"/>
<!-- stap1 -->
<g id="node1" class="node">
<title>stap1</title>
<polygon fill="none" stroke="blue" points="54,-36 0,-36 0,0 54,0 54,-36"/>
<text text-anchor="middle" x="27" y="-14.3" font-family="Times,serif" font-size="14.00">stap1</text>
</g>
<!-- stap2 -->
<g id="node2" class="node">
<title>stap2</title>
<polygon fill="none" stroke="blue" points="144,-36 90,-36 90,0 144,0 144,-36"/>
<text text-anchor="middle" x="117" y="-14.3" font-family="Times,serif" font-size="14.00">stap2</text>
</g>
<!-- stap1&#45;&gt;stap2 -->
<g id="edge1" class="edge">
<title>stap1&#45;&gt;stap2</title>
<path fill="none" stroke="black" d="M54.4,-18C62.39,-18 71.31,-18 79.82,-18"/>
<polygon fill="black" stroke="black" points="79.92,-21.5 89.92,-18 79.92,-14.5 79.92,-21.5"/>
</g>
<!-- stap3 -->
<g id="node3" class="node">
<title>stap3</title>
<polygon fill="none" stroke="blue" points="234,-36 180,-36 180,0 234,0 234,-36"/>
<text text-anchor="middle" x="207" y="-14.3" font-family="Times,serif" font-size="14.00">stap3</text>
</g>
<!-- stap2&#45;&gt;stap3 -->
<g id="edge2" class="edge">
<title>stap2&#45;&gt;stap3</title>
<path fill="none" stroke="black" d="M144.4,-18C152.39,-18 161.31,-18 169.82,-18"/>
<polygon fill="black" stroke="black" points="169.92,-21.5 179.92,-18 169.92,-14.5 169.92,-21.5"/>
</g>
</g>
</svg>
