<?xml version="1.0" encoding="UTF-8" standalone="no"?>
<!DOCTYPE svg PUBLIC "-//W3C//DTD SVG 1.1//EN"
 "http://www.w3.org/Graphics/SVG/1.1/DTD/svg11.dtd">
<!-- Generated by graphviz version 6.0.1 (20220911.1526)
 -->
<!-- Title: G Pages: 1 -->
<svg width="424pt" height="206pt"
 viewBox="0.00 0.00 424.19 206.00" xmlns="http://www.w3.org/2000/svg" xmlns:xlink="http://www.w3.org/1999/xlink">
<g id="graph0" class="graph" transform="scale(1 1) rotate(0) translate(4 202)">
<title>G</title>
<polygon fill="white" stroke="none" points="-4,4 -4,-202 420.19,-202 420.19,4 -4,4"/>
<!-- mdfile -->
<g id="node1" class="node">
<title>mdfile</title>
<polygon fill="none" stroke="black" points="104,-198 0,-198 0,-162 104,-162 104,-198"/>
<text text-anchor="middle" x="52" y="-176.3" font-family="Times,serif" font-size="14.00">Markdown files</text>
</g>
<!-- jbook -->
<g id="node5" class="node">
<title>jbook</title>
<ellipse fill="none" stroke="black" cx="178.35" cy="-99" rx="38.19" ry="18"/>
<text text-anchor="middle" x="178.35" y="-95.3" font-family="Times,serif" font-size="14.00">jb build</text>
</g>
<!-- mdfile&#45;&gt;jbook -->
<g id="edge1" class="edge">
<title>mdfile&#45;&gt;jbook</title>
<path fill="none" stroke="black" d="M88.77,-161.93C93.95,-159.06 99.16,-156.04 104,-153 119.75,-143.11 136.5,-130.91 150.02,-120.61"/>
<polygon fill="black" stroke="black" points="152.19,-123.36 157.98,-114.48 147.92,-117.81 152.19,-123.36"/>
</g>
<!-- jnfile -->
<g id="node2" class="node">
<title>jnfile</title>
<polygon fill="none" stroke="black" points="100.5,-144 3.5,-144 3.5,-108 100.5,-108 100.5,-144"/>
<text text-anchor="middle" x="52" y="-122.3" font-family="Times,serif" font-size="14.00">Notebook files</text>
</g>
<!-- jnfile&#45;&gt;jbook -->
<g id="edge4" class="edge">
<title>jnfile&#45;&gt;jbook</title>
<path fill="none" stroke="black" d="M100.72,-115.64C111.41,-113.32 122.71,-110.86 133.24,-108.58"/>
<polygon fill="black" stroke="black" points="134.04,-111.98 143.07,-106.44 132.56,-105.14 134.04,-111.98"/>
</g>
<!-- toc -->
<g id="node3" class="node">
<title>toc</title>
<polygon fill="none" stroke="black" points="83,-90 21,-90 21,-54 83,-54 83,-90"/>
<text text-anchor="middle" x="52" y="-68.3" font-family="Times,serif" font-size="14.00">_toc file</text>
</g>
<!-- toc&#45;&gt;jbook -->
<g id="edge5" class="edge">
<title>toc&#45;&gt;jbook</title>
<path fill="none" stroke="black" d="M83.1,-78.54C98.1,-81.79 116.53,-85.79 133.1,-89.39"/>
<polygon fill="black" stroke="black" points="132.62,-92.87 143.13,-91.57 134.1,-86.03 132.62,-92.87"/>
</g>
<!-- config -->
<g id="node4" class="node">
<title>config</title>
<polygon fill="none" stroke="black" points="92,-36 12,-36 12,0 92,0 92,-36"/>
<text text-anchor="middle" x="52" y="-14.3" font-family="Times,serif" font-size="14.00">_config file</text>
</g>
<!-- config&#45;&gt;jbook -->
<g id="edge6" class="edge">
<title>config&#45;&gt;jbook</title>
<path fill="none" stroke="black" d="M88.77,-36.07C93.95,-38.94 99.16,-41.96 104,-45 119.75,-54.89 136.5,-67.09 150.02,-77.39"/>
<polygon fill="black" stroke="black" points="147.92,-80.19 157.98,-83.52 152.19,-74.64 147.92,-80.19"/>
</g>
<!-- sphinx -->
<g id="node6" class="node">
<title>sphinx</title>
<ellipse fill="none" stroke="black" cx="288.44" cy="-99" rx="36" ry="18"/>
<text text-anchor="middle" x="288.44" y="-95.3" font-family="Times,serif" font-size="14.00">Sphinx</text>
</g>
<!-- jbook&#45;&gt;sphinx -->
<g id="edge2" class="edge">
<title>jbook&#45;&gt;sphinx</title>
<path fill="none" stroke="black" d="M216.85,-99C225.09,-99 233.89,-99 242.39,-99"/>
<polygon fill="black" stroke="black" points="242.54,-102.5 252.54,-99 242.54,-95.5 242.54,-102.5"/>
</g>
<!-- HTML -->
<g id="node7" class="node">
<title>HTML</title>
<polygon fill="none" stroke="black" points="416.19,-144 360.19,-144 360.19,-108 416.19,-108 416.19,-144"/>
<text text-anchor="middle" x="388.19" y="-122.3" font-family="Times,serif" font-size="14.00">HTML</text>
</g>
<!-- sphinx&#45;&gt;HTML -->
<g id="edge3" class="edge">
<title>sphinx&#45;&gt;HTML</title>
<path fill="none" stroke="black" d="M320.1,-107.47C329.67,-110.11 340.34,-113.06 350.29,-115.81"/>
<polygon fill="black" stroke="black" points="349.37,-119.19 359.94,-118.48 351.24,-112.44 349.37,-119.19"/>
</g>
<!-- PDF -->
<g id="node8" class="node">
<title>PDF</title>
<polygon fill="none" stroke="black" points="415.19,-90 361.19,-90 361.19,-54 415.19,-54 415.19,-90"/>
<text text-anchor="middle" x="388.19" y="-68.3" font-family="Times,serif" font-size="14.00">PDF</text>
</g>
<!-- sphinx&#45;&gt;PDF -->
<g id="edge7" class="edge">
<title>sphinx&#45;&gt;PDF</title>
<path fill="none" stroke="black" d="M320.1,-90.53C329.93,-87.82 340.9,-84.79 351.08,-81.97"/>
<polygon fill="black" stroke="black" points="352.21,-85.29 360.92,-79.26 350.35,-78.55 352.21,-85.29"/>
</g>
</g>
</svg>
